<?xml version="1.0" standalone="no"?>
<!DOCTYPE svg PUBLIC "-//W3C//DTD SVG 20010904//EN"
 "http://www.w3.org/TR/2001/REC-SVG-20010904/DTD/svg10.dtd">
<svg version="1.0" xmlns="http://www.w3.org/2000/svg"
 width="400.000000pt" height="400.000000pt" viewBox="0 0 400.000000 400.000000"
 preserveAspectRatio="xMidYMid meet">

<g transform="translate(0.000000,400.000000) scale(0.100000,-0.100000)"
fill="#000000" stroke="none">
<path d="M0 2000 l0 -2000 2000 0 2000 0 0 2000 0 2000 -2000 0 -2000 0 0
-2000z m1080 1893 c0 -5 -16 -19 -35 -32 -54 -36 -175 -168 -227 -247 -132
-199 -192 -394 -192 -629 0 -235 60 -430 192 -629 270 -408 815 -596 1273
-441 38 13 69 20 69 15 0 -25 -177 -121 -300 -163 -147 -51 -215 -60 -408 -55
-160 5 -187 8 -279 35 -315 95 -564 302 -704 588 -92 190 -124 341 -116 550 9
213 55 371 162 547 56 93 86 131 180 224 92 91 170 147 283 205 76 38 102 46
102 32z m1751 -82 c24 -25 29 -38 29 -79 0 -34 -6 -57 -20 -75 -14 -17 -20
-40 -20 -75 0 -42 4 -52 25 -66 21 -14 25 -24 25 -67 l0 -50 130 -61 c118 -56
130 -64 130 -87 0 -21 17 -41 75 -90 l75 -64 0 -56 0 -57 65 -32 c36 -17 65
-37 65 -43 0 -7 -29 -58 -65 -114 l-65 -102 0 -817 0 -818 40 -15 c38 -15 40
-18 40 -60 l0 -43 112 85 c79 60 121 85 140 85 17 0 28 -5 28 -13 0 -8 -162
-141 -360 -297 -198 -156 -360 -290 -360 -297 0 -8 -4 -11 -10 -8 -5 3 -121
-82 -257 -190 -136 -107 -254 -195 -260 -195 -21 0 -15 53 10 81 12 14 47 46
77 70 30 25 81 66 113 93 l57 48 -207 217 c-135 141 -223 225 -250 239 l-43
22 0 73 0 74 40 16 40 15 0 818 0 817 -65 102 c-36 56 -65 107 -65 114 0 6 29
26 65 43 l65 32 0 57 0 56 75 64 c58 49 75 69 75 90 0 23 12 31 130 87 l130
61 0 50 c0 43 4 53 25 67 21 13 25 24 25 61 0 34 -6 53 -25 75 -38 44 -36 119
4 159 25 25 37 29 81 29 44 0 56 -4 81 -29z"/>
<path d="M2697 3782 c-24 -26 -22 -85 3 -107 17 -15 20 -31 20 -91 0 -67 -2
-75 -25 -90 -20 -13 -25 -25 -25 -55 l0 -39 85 0 85 0 0 39 c0 30 -5 42 -25
55 -23 15 -25 22 -25 95 0 58 4 82 15 91 21 18 19 83 -3 103 -25 23 -85 22
-105 -1z"/>
<path d="M2531 3309 c-68 -33 -122 -62 -119 -65 3 -3 55 11 115 30 99 33 119
36 224 36 86 0 130 -5 175 -19 213 -68 225 -64 49 19 l-127 60 -97 -1 -96 -1
-124 -59z"/>
<path d="M2523 3237 c-108 -37 -131 -49 -193 -102 -66 -56 -88 -84 -56 -72 8
3 52 13 100 23 49 9 83 21 80 26 -4 6 2 8 14 4 11 -4 50 0 87 9 83 19 313 20
410 1 39 -8 73 -12 77 -10 4 3 15 0 25 -5 10 -6 56 -17 103 -25 l85 -14 -32
26 c-116 99 -117 99 -249 141 -118 37 -141 41 -230 40 -89 0 -112 -5 -221 -42z"/>
<path d="M2480 3075 c-80 -18 -147 -34 -150 -35 -10 -4 -25 -7 -45 -8 -16 -2
-21 -10 -23 -34 -1 -18 -10 -39 -19 -45 -22 -17 -34 -18 257 22 l256 36 253
-35 c288 -41 281 -40 258 -23 -10 7 -18 27 -19 49 -1 30 -5 38 -27 43 -15 4
-27 2 -29 -4 -2 -7 -9 -5 -19 4 -8 8 -24 16 -36 16 -32 2 -51 5 -165 28 -157
32 -308 28 -492 -14z"/>
<path d="M2510 2943 c-124 -18 -252 -35 -285 -38 -33 -4 -63 -9 -67 -13 -12
-12 33 -72 53 -72 10 0 19 3 19 8 0 4 19 7 43 7 23 0 58 4 77 8 19 4 65 10
102 13 87 6 278 31 284 37 3 3 4 22 2 44 l-3 38 -225 -32z"/>
<path d="M2770 2934 c0 -38 3 -43 28 -48 41 -8 199 -26 267 -31 33 -2 76 -8
95 -12 19 -4 54 -8 78 -8 23 0 42 -3 42 -7 0 -5 9 -8 19 -8 20 0 65 60 53 72
-4 4 -34 9 -67 13 -33 3 -162 20 -287 38 l-228 33 0 -42z"/>
<path d="M2484 2824 c-137 -17 -256 -33 -262 -35 -9 -3 -7 -11 8 -26 11 -12
20 -27 20 -33 0 -6 10 -8 23 -5 12 3 121 21 241 40 121 20 221 37 224 39 2 2
2 15 0 28 l-3 24 -251 -32z"/>
<path d="M2770 2828 c0 -15 2 -28 4 -28 9 0 442 -70 464 -75 12 -3 22 -1 22 5
0 6 9 20 20 32 11 12 18 23 16 25 -2 2 -121 18 -265 37 l-261 32 0 -28z"/>
<path d="M2525 2734 c-110 -18 -215 -36 -233 -39 l-34 -6 6 -66 c3 -36 7 -67
8 -68 2 -1 102 8 223 21 121 12 226 23 233 23 8 1 12 25 12 86 0 47 -3 84 -7
84 -5 -1 -98 -16 -208 -35z"/>
<path d="M2770 2685 c0 -61 4 -85 13 -86 6 0 111 -11 232 -23 121 -13 221 -22
223 -21 1 1 5 32 8 68 6 77 38 63 -241 107 -104 16 -200 32 -212 35 -22 5 -23
3 -23 -80z"/>
<path d="M2500 2544 c-118 -12 -221 -23 -227 -23 -10 -1 -13 -74 -13 -331 l0
-330 38 5 c20 3 107 12 192 20 85 8 176 18 203 21 l47 6 0 329 c0 257 -3 329
-12 328 -7 -1 -110 -12 -228 -25z m60 -389 l0 -135 -40 0 -40 0 0 135 0 135
40 0 40 0 0 -135z"/>
<path d="M2770 2241 l0 -329 58 -6 c31 -3 118 -10 192 -16 74 -5 156 -12 183
-15 l47 -6 0 325 0 324 -47 6 c-27 3 -118 13 -203 21 -85 8 -172 17 -192 20
l-38 5 0 -329z m260 -86 l0 -135 -40 0 -40 0 0 135 0 135 40 0 40 0 0 -135z"/>
<path d="M2500 1854 c-118 -12 -221 -23 -227 -23 -10 -1 -13 -85 -13 -386 l0
-385 240 0 240 0 0 410 c0 322 -3 410 -12 409 -7 -1 -110 -12 -228 -25z"/>
<path d="M2770 1470 l0 -410 240 0 240 0 0 389 0 389 -57 6 c-32 3 -119 10
-193 16 -74 5 -156 12 -182 15 l-48 6 0 -411z"/>
<path d="M2213 1014 c-31 -13 -33 -17 -33 -62 0 -47 1 -48 45 -70 45 -22 51
-22 530 -22 l484 0 43 24 c40 22 43 27 46 70 5 77 14 76 -577 75 -414 0 -512
-3 -538 -15z"/>
<path d="M2360 755 l74 -75 289 0 288 0 89 71 c50 39 90 72 90 75 0 2 -204 4
-452 4 l-452 0 74 -75z"/>
<path d="M2470 645 c0 -3 16 -23 36 -45 l36 -40 157 0 158 0 57 45 58 45 -251
0 c-138 0 -251 -2 -251 -5z"/>
<path d="M2625 480 c27 -27 53 -50 58 -50 9 0 127 90 127 96 0 2 -53 4 -117 4
l-117 0 49 -50z"/>
</g>
</svg>
